<svg width="33" height="23" viewBox="0 0 33 23" fill="none" xmlns="http://www.w3.org/2000/svg">
<path d="M27.0478 0.0734863H5.60957C2.64956 0.0734863 0.25 1.71537 0.25 3.74073V18.4097C0.25 20.4351 2.64956 22.077 5.60957 22.077H27.0478C30.0078 22.077 32.4074 20.4351 32.4074 18.4097V3.74073C32.4074 1.71537 30.0078 0.0734863 27.0478 0.0734863Z" fill="#2AA8FF"/>
<path fill-rule="evenodd" clip-rule="evenodd" d="M8.44684 7.55759C11.302 7.53106 13.9033 6.78569 15.8819 5.57397C17.8605 6.78569 20.4618 7.53106 23.317 7.55759C23.4207 7.98018 23.4746 8.41432 23.4746 8.85708C23.4746 12.2502 20.3054 15.1367 15.8819 16.2065C11.4584 15.1367 8.28918 12.2502 8.28918 8.85708C8.28918 8.41432 8.34316 7.98018 8.44684 7.55759ZM19.3608 9.93867C19.7096 9.69999 19.7096 9.31298 19.3608 9.0743C19.012 8.83562 18.4464 8.83562 18.0976 9.0743L14.9328 11.2397L13.6663 10.3731C13.3174 10.1344 12.7518 10.1344 12.403 10.3731C12.0542 10.6118 12.0542 10.9988 12.403 11.2375L14.3012 12.5363C14.65 12.775 15.2156 12.775 15.5644 12.5363L19.3608 9.93867Z" fill="white"/>
</svg>
