<svg width="80" height="80" viewBox="0 0 80 80" fill="none" xmlns="http://www.w3.org/2000/svg">
<path d="M43.4472 67.9685C42.7685 67.9685 42.1215 67.6925 41.6502 67.2068L16.7772 41.4865C10.2295 34.7115 10.3222 23.7815 16.9822 17.1188C23.059 11.042 32.822 10.3488 39.6922 15.505L43.4472 18.32L47.1972 15.505C54.0772 10.3513 63.8377 11.0445 69.9097 17.1188C76.5722 23.7813 76.665 34.7115 70.1147 41.4865L45.2442 67.2068C44.773 67.6925 44.126 67.9685 43.4472 67.9685ZM29.2847 17.048C26.0865 17.048 22.903 18.2688 20.5177 20.654C15.774 25.4 15.7082 33.1858 20.3712 38.01L43.4475 61.8723L66.5212 38.01C71.1867 33.1858 71.1207 25.4003 66.3747 20.654C62.0485 16.3255 55.093 15.837 50.198 19.504L44.949 23.4445C44.0602 24.1135 42.8372 24.1135 41.9485 23.4445L36.6945 19.504C34.4972 17.856 31.885 17.048 29.2847 17.048Z" fill="#2AA7FF"/>
<path d="M42.5 52.4998C42.4415 52.4998 42.3827 52.4973 42.3217 52.4926C41.3135 52.4218 40.4492 51.7503 40.1292 50.7908L34.7875 34.7653L32.3217 40.9273C31.941 41.8771 31.023 42.4996 30 42.4996H7.5C6.11825 42.4996 5 41.3813 5 39.9996C5 38.6178 6.11825 37.4996 7.5 37.4996H28.308L32.678 26.5718C33.0685 25.5978 34.0525 24.9923 35.073 24.9996C36.1227 25.0313 37.0407 25.7148 37.3702 26.7086L42.9635 43.4836L45.2632 38.8816C45.688 38.0343 46.5522 37.4998 47.4995 37.4998H54.9995C56.3812 37.4998 57.4995 38.6181 57.4995 39.9998C57.4995 41.3816 56.3812 42.4998 54.9995 42.4998H49.045L44.736 51.1181C44.3112 51.9701 43.4422 52.4998 42.5 52.4998Z" fill="#2AA7FF"/>
</svg>
